<svg width="24" height="24" viewBox="0 0 24 24" fill="none" xmlns="http://www.w3.org/2000/svg">
<g clip-path="url(#clip0_612_16)">
<mask id="mask0_612_16" style="mask-type:luminance" maskUnits="userSpaceOnUse" x="0" y="0" width="24" height="24">
<path d="M24 0H0V24H24V0Z" fill="white"/>
</mask>
<g mask="url(#mask0_612_16)">
<path fill-rule="evenodd" clip-rule="evenodd" d="M3.13991 7.28291C2.31141 7.67139 1.50937 8.11476 0.73909 8.61008C2.39316 14.9542 6.37747 20.4517 11.8398 23.9999C14.2128 22.4747 16.3277 20.5761 18.1037 18.3763C14.78 16.7675 12.0224 14.1761 10.199 10.9479C8.37556 7.71964 7.57298 4.00815 7.89834 0.308594C5.10825 0.74176 2.40724 1.63163 -0.0976562 2.94296C-0.0596136 3.91197 0.030432 4.87822 0.172088 5.83744C1.77196 4.90408 3.47548 4.16387 5.24737 3.63213C5.75961 9.96842 9.07137 15.5053 13.9356 18.9865C13.2739 19.6147 12.5767 20.2037 11.8476 20.7508C7.47605 17.4231 4.37928 12.6543 3.13985 7.28266L3.13991 7.28291Z" fill="#EDFF71"/>
<path fill-rule="evenodd" clip-rule="evenodd" d="M10.5888 0.033096C9.77156 6.86154 13.4782 13.4066 19.6953 16.1789C20.1821 15.4277 20.631 14.6523 21.0403 13.8555C18.8196 12.9269 16.9026 11.3887 15.5076 9.41622C14.1125 7.44378 13.2956 5.11637 13.1498 2.69911C15.7437 2.83534 18.2968 3.40631 20.7041 4.3885C19.3433 5.03437 18.014 5.49895 16.5673 5.8891C18.0922 9.579 19.4255 9.29944 22.2056 11.2369C22.5335 10.3727 22.8167 9.49203 23.0541 8.59837C22.2998 8.11734 21.5162 7.68461 20.708 7.30276C21.7079 6.88715 22.6809 6.40837 23.621 5.86934C23.7696 4.89881 23.8635 3.92063 23.9024 2.93943C19.7929 0.789291 15.2103 -0.199162 10.5887 0.0332283L10.5888 0.033096Z" fill="#EDFF71"/>
</g>
</g>
<defs>
<clipPath id="clip0_612_16">
<rect width="24" height="24" fill="white"/>
</clipPath>
</defs>
</svg>
